PathFileType	4	(X/Y/Z)	 s05c0001.trc
DataRate	CameraRate	NumFrames	NumMarkers	Units	OrigDataRate	OrigDataStartFrame	OrigNumFrames
200	200	4	49	mm	200	501	2000
Frame#	Time	racr			lacr			c7			jug			rlel			rdr			llel			ldr			s2			lic			ric			lasi			rasi			rpsi			lpsi			rgt			lgt			rth1			rth2			rth3			rth4			rlfc			rmfc			rsh1			rsh2			rsh3			rsh4			rlmal			rmmal			rcal			rtoe			rmt5			rmt1			lth1			lth2			lth4			lth3			llfc			lmfc			lsh1			lsh2			lsh3			lsh4			llmal			lmmal			lcal			ltoe			lmt1			lmt5			
		X1	Y1	Z1	X2	Y2	Z2	X3	Y3	Z3	X4	Y4	Z4	X5	Y5	Z5	X6	Y6	Z6	X7	Y7	Z7	X8	Y8	Z8	X9	Y9	Z9	X10	Y10	Z10	X11	Y11	Z11	X12	Y12	Z12	X13	Y13	Z13	X14	Y14	Z14	X15	Y15	Z15	X16	Y16	Z16	X17	Y17	Z17	X18	Y18	Z18	X19	Y19	Z19	X20	Y20	Z20	X21	Y21	Z21	X22	Y22	Z22	X23	Y23	Z23	X24	Y24	Z24	X25	Y25	Z25	X26	Y26	Z26	X27	Y27	Z27	X28	Y28	Z28	X29	Y29	Z29	X30	Y30	Z30	X31	Y31	Z31	X32	Y32	Z32	X33	Y33	Z33	X34	Y34	Z34	X35	Y35	Z35	X36	Y36	Z36	X37	Y37	Z37	X38	Y38	Z38	X39	Y39	Z39	X40	Y40	Z40	X41	Y41	Z41	X42	Y42	Z42	X43	Y43	Z43	X44	Y44	Z44	X45	Y45	Z45	X46	Y46	Z46	X47	Y47	Z47	X48	Y48	Z48	X49	Y49	Z49	
501	2.5050	268.242246	1528.184966	348.650407	255.781955	1534.928578	2.236771	202.034968	1571.137440	171.526530	345.300917	1484.087329	170.417525	236.163393	1281.770859	533.619232	305.644598	1136.910358	742.384436	201.668686	1292.187285	-193.647507	234.108423	1156.781839	-431.053396	177.652035	1035.675988	180.974724	318.955787	1095.239151	31.225167	322.019023	1076.403000	316.943565	371.900376	1029.505560	63.399936	378.622585	1020.222080	284.751329	201.377817	1068.189181	224.186551	198.738410	1072.161964	134.991728	272.819605	923.182426	334.872129	245.067043	953.848797	10.747894	276.095614	824.868444	351.052345	287.993476	735.949305	350.074555	253.546086	655.839973	338.213379	324.469614	732.246216	341.430853	256.022774	507.408593	312.500307	248.578102	506.758493	211.535999	202.746275	410.076238	340.107169	217.917302	322.482434	331.025535	190.044502	242.125132	323.715581	250.265052	323.000149	308.234825	187.169506	109.595853	305.781925	212.915691	124.598772	227.885571	136.830554	62.404782	249.254690	424.696796	81.019191	309.452732	317.333009	44.848106	355.997200	350.604760	47.214025	242.551606	262.294172	822.027948	-10.614984	284.502159	739.289632	-4.613765	320.494262	739.027179	7.589924	259.152771	652.511372	6.443020	246.864054	516.836900	39.132864	239.740335	509.147892	139.041990	195.765258	400.151168	12.996964	210.734185	314.097641	23.056905	179.171861	231.175465	27.325098	242.973359	313.930748	43.579811	183.243259	108.865104	41.887303	211.878754	127.604979	115.235165	136.945419	57.425783	94.078857	425.066257	79.376464	39.361869	351.274258	48.186262	106.043276	312.842720	38.252934	-5.430744	
502	2.5100	268.257099	1528.181760	348.648653	255.772506	1534.921679	2.222587	202.042810	1571.147379	171.511350	345.289379	1484.085592	170.417268	236.164943	1281.768549	533.616455	305.645559	1136.893800	742.372713	201.657552	1292.193289	-193.637535	234.094956	1156.767428	-431.053732	177.630384	1035.669010	180.970855	318.933768	1095.232809	31.217559	322.008283	1076.401827	316.930448	371.891910	1029.505049	63.406824	378.624852	1020.211569	284.755900	201.358342	1068.189979	224.188238	198.726268	1072.173641	135.013573	272.812649	923.166925	334.874652	245.057478	953.860123	10.740408	276.082820	824.874717	351.056531	287.983818	735.949715	350.086674	253.517143	655.837717	338.209951	324.463909	732.257047	341.446533	256.018928	507.408118	312.498299	248.572076	506.765464	211.529500	202.731237	410.079951	340.113213	217.943216	322.460081	331.023417	190.055034	242.126274	323.728364	250.261646	322.989063	308.238327	187.174122	109.593767	305.775847	212.901808	124.597838	227.872702	136.819005	62.416560	249.249768	424.685178	81.015712	309.458117	317.308374	44.845778	356.002452	350.586482	47.198577	242.551948	262.280663	822.033379	-10.615200	284.504713	739.280691	-4.612690	320.482225	739.037328	7.575669	259.148459	652.508736	6.457596	246.863630	516.827200	39.142192	239.714352	509.163700	139.051720	195.762179	400.159796	13.010139	210.729583	314.133584	23.045655	179.177389	231.186464	27.321776	242.979299	313.928507	43.573945	183.237094	108.871744	41.899166	211.886646	127.591661	115.234141	136.944017	57.414602	94.080197	425.062357	79.386285	39.358290	351.289444	48.202980	106.044712	312.844594	38.261058	-5.442339	
503	2.5150	268.229351	1528.182469	348.649941	255.771704	1534.925358	2.222322	202.012790	1571.147281	171.533839	345.283130	1484.086451	170.420110	236.173399	1281.819714	533.668875	305.672114	1136.877465	742.360388	201.648012	1292.180342	-193.656833	234.053762	1156.734472	-431.051698	177.635288	1035.673516	180.983774	318.936754	1095.224644	31.222483	321.987569	1076.401078	316.939341	371.884996	1029.509501	63.413504	378.601656	1020.220485	284.754539	201.358942	1068.197187	224.205189	198.722016	1072.191455	135.000413	272.804839	923.180553	334.878592	245.053333	953.858058	10.751062	276.086320	824.872624	351.056791	287.965007	735.939784	350.076563	253.519855	655.865273	338.227900	324.447769	732.247620	341.445886	255.995413	507.412536	312.498352	248.562449	506.757395	211.540060	202.717394	410.074712	340.108397	217.898121	322.471278	331.023404	190.033145	242.131847	323.730454	250.251734	322.983569	308.234007	187.168199	109.599961	305.780555	212.899619	124.602868	227.872723	136.808176	62.413490	249.257007	424.695828	81.017082	309.465701	317.317315	44.851298	356.002644	350.584765	47.212289	242.555321	262.287652	822.027829	-10.612000	284.499855	739.275934	-4.598889	320.491369	739.037992	7.594351	259.145672	652.493346	6.467029	246.865632	516.832747	39.142745	239.711275	509.151479	139.076305	195.756485	400.146669	13.017545	210.729187	314.131231	23.050651	179.175959	231.176739	27.328126	242.974673	313.935397	43.580785	183.249499	108.859204	41.911239	211.897801	127.590842	115.229472	136.943007	57.416420	94.078085	425.058321	79.378563	39.365175	351.251916	48.185287	106.039556	312.845217	38.258987	-5.438828	
504	2.5200	268.232394	1528.173880	348.640411	255.771276	1534.914105	2.214965	202.017231	1571.147434	171.505687	345.276151	1484.092921	170.420899	236.191243	1281.748542	533.599884	305.685077	1136.873993	742.342747	201.639058	1292.180370	-193.657702	234.050548	1156.717026	-431.052647	177.629997	1035.680736	180.972765	318.929111	1095.227407	31.220673	321.960502	1076.416998	316.949979	371.875623	1029.510138	63.416240	378.591495	1020.221046	284.763956	201.340203	1068.200672	224.202463	198.703606	1072.191672	135.008135	272.785651	923.180169	334.873613	245.039616	953.852129	10.765802	276.049832	824.870750	351.060387	287.944409	735.934945	350.090196	253.517290	655.861734	338.221044	324.444336	732.240293	341.442601	255.980843	507.418108	312.492890	248.558122	506.763460	211.538692	202.725983	410.078901	340.114334	217.889670	322.481822	331.019471	190.028665	242.118783	323.723546	250.243494	322.988123	308.242682	187.186695	109.598021	305.795469	212.901984	124.602984	227.884923	136.817352	62.407081	249.259059	424.702940	81.011863	309.461473	317.308968	44.859182	355.996254	350.604758	47.214019	242.551608	262.268064	822.035738	-10.598587	284.498790	739.282779	-4.575115	320.479722	739.028049	7.608847	259.158992	652.493059	6.469114	246.850276	516.841140	39.159756	239.705157	509.140290	139.061164	195.756432	400.147144	13.017429	210.726228	314.110052	23.052258	179.164487	231.192346	27.328513	242.968186	313.921192	43.586848	183.239688	108.859891	41.897797	211.917235	127.552456	115.232833	136.944124	57.414150	94.086670	425.052414	79.380470	39.365295	351.259324	48.190880	106.045010	312.843756	38.266316	-5.438352	
